<?xml version="1.0" encoding="UTF-8"?>
<svg width="108px" height="51px" viewBox="0 0 108 51" version="1.1" xmlns="http://www.w3.org/2000/svg" xmlns:xlink="http://www.w3.org/1999/xlink">
    <!-- Generator: Sketch 43.2 (39069) - http://www.bohemiancoding.com/sketch -->
    <title>Untitled</title>
    <desc>Created with Sketch.</desc>
    <defs>
        <rect id="path-1" x="0" y="0.126" width="108" height="30"></rect>
    </defs>
    <g id="Page-1" stroke="none" stroke-width="1" fill="none" fill-rule="evenodd">
        <g id="Group">
            <g id="Book" transform="translate(23.000000, 0.000000)" fill-rule="nonzero" fill="#333333">
                <g id="path0_fill-link">
                    <path d="M0.728,2.008 L7.064,2.008 C7.8,2.008 8.536,2.064 9.272,2.176 C10.024,2.272 10.696,2.48 11.288,2.8 C11.88,3.104 12.36,3.536 12.728,4.096 C13.096,4.656 13.28,5.4 13.28,6.328 C13.28,7.288 13.008,8.088 12.464,8.728 C11.936,9.352 11.232,9.8 10.352,10.072 L10.352,10.12 C10.912,10.2 11.416,10.36 11.864,10.6 C12.328,10.824 12.72,11.12 13.04,11.488 C13.376,11.84 13.632,12.256 13.808,12.736 C13.984,13.216 14.072,13.728 14.072,14.272 C14.072,15.168 13.88,15.92 13.496,16.528 C13.112,17.12 12.616,17.6 12.008,17.968 C11.4,18.336 10.712,18.6 9.944,18.76 C9.192,18.92 8.44,19 7.688,19 L0.728,19 L0.728,2.008 Z M4.472,8.8 L7.184,8.8 C7.472,8.8 7.752,8.768 8.024,8.704 C8.312,8.64 8.568,8.536 8.792,8.392 C9.016,8.248 9.192,8.056 9.32,7.816 C9.464,7.576 9.536,7.288 9.536,6.952 C9.536,6.6 9.456,6.312 9.296,6.088 C9.152,5.848 8.96,5.664 8.72,5.536 C8.48,5.408 8.208,5.32 7.904,5.272 C7.6,5.208 7.304,5.176 7.016,5.176 L4.472,5.176 L4.472,8.8 Z M4.472,15.832 L7.832,15.832 C8.12,15.832 8.408,15.8 8.696,15.736 C9,15.672 9.272,15.56 9.512,15.4 C9.752,15.24 9.944,15.032 10.088,14.776 C10.248,14.52 10.328,14.208 10.328,13.84 C10.328,13.44 10.224,13.12 10.016,12.88 C9.824,12.624 9.576,12.432 9.272,12.304 C8.968,12.176 8.64,12.088 8.288,12.04 C7.936,11.992 7.608,11.968 7.304,11.968 L4.472,11.968 L4.472,15.832 Z M15.4025,13.168 C15.4025,12.24 15.5705,11.4 15.9065,10.648 C16.2425,9.896 16.6985,9.256 17.2745,8.728 C17.8665,8.184 18.5545,7.768 19.3384,7.48 C20.1386,7.192 20.9864,7.048 21.8826,7.048 C22.7786,7.048 23.6186,7.192 24.4024,7.48 C25.2026,7.768 25.8904,8.184 26.4664,8.728 C27.0586,9.256 27.5226,9.896 27.8584,10.648 C28.1944,11.4 28.3626,12.24 28.3626,13.168 C28.3626,14.096 28.1944,14.936 27.8584,15.688 C27.5226,16.44 27.0586,17.088 26.4664,17.632 C25.8904,18.16 25.2026,18.568 24.4024,18.856 C23.6186,19.144 22.7786,19.288 21.8826,19.288 C20.9864,19.288 20.1386,19.144 19.3384,18.856 C18.5545,18.568 17.8665,18.16 17.2745,17.632 C16.6985,17.088 16.2425,16.44 15.9065,15.688 C15.5705,14.936 15.4025,14.096 15.4025,13.168 Z M19.0024,13.168 C19.0024,14.048 19.2506,14.76 19.7466,15.304 C20.2586,15.848 20.9706,16.12 21.8826,16.12 C22.7944,16.12 23.4986,15.848 23.9946,15.304 C24.5066,14.76 24.7624,14.048 24.7624,13.168 C24.7624,12.288 24.5066,11.576 23.9946,11.032 C23.4986,10.488 22.7944,10.216 21.8826,10.216 C20.9706,10.216 20.2586,10.488 19.7466,11.032 C19.2506,11.576 19.0024,12.288 19.0024,13.168 Z M30.051,13.168 C30.051,12.24 30.219,11.4 30.555,10.648 C30.891,9.896 31.347,9.256 31.923,8.728 C32.515,8.184 33.203,7.768 33.987,7.48 C34.787,7.192 35.635,7.048 36.531,7.048 C37.427,7.048 38.267,7.192 39.051,7.48 C39.851,7.768 40.539,8.184 41.115,8.728 C41.707,9.256 42.171,9.896 42.507,10.648 C42.843,11.4 43.011,12.24 43.011,13.168 C43.011,14.096 42.843,14.936 42.507,15.688 C42.171,16.44 41.707,17.088 41.115,17.632 C40.539,18.16 39.851,18.568 39.051,18.856 C38.267,19.144 37.427,19.288 36.531,19.288 C35.635,19.288 34.787,19.144 33.987,18.856 C33.203,18.568 32.515,18.16 31.923,17.632 C31.347,17.088 30.891,16.44 30.555,15.688 C30.219,14.936 30.051,14.096 30.051,13.168 Z M33.651,13.168 C33.651,14.048 33.899,14.76 34.395,15.304 C34.907,15.848 35.619,16.12 36.531,16.12 C37.443,16.12 38.147,15.848 38.643,15.304 C39.155,14.76 39.411,14.048 39.411,13.168 C39.411,12.288 39.155,11.576 38.643,11.032 C38.147,10.488 37.443,10.216 36.531,10.216 C35.619,10.216 34.907,10.488 34.395,11.032 C33.899,11.576 33.651,12.288 33.651,13.168 Z M45.1314,0.856 L48.7314,0.856 L48.7314,11.944 L52.7154,7.336 L57.1314,7.336 L52.4994,12.592 L57.2514,19 L52.7154,19 L48.7794,13.096 L48.7314,13.096 L48.7314,19 L45.1314,19 L45.1314,0.856 Z" id="path0_fill"></path>
                </g>
            </g>
            <g id="shelf" transform="translate(24.000000, 30.000000)" fill-rule="nonzero" fill="#333333">
                <g id="path1_fill-link" transform="translate(0.000000, 0.234000)">
                    <path d="M7.872,10.768 C7.344,10.112 6.648,9.784 5.784,9.784 C5.48,9.784 5.184,9.856 4.896,10 C4.608,10.144 4.464,10.392 4.464,10.744 C4.464,11.032 4.608,11.248 4.896,11.392 C5.2,11.52 5.576,11.64 6.024,11.752 C6.488,11.848 6.976,11.96 7.488,12.088 C8.016,12.2 8.504,12.384 8.952,12.64 C9.416,12.896 9.792,13.248 10.08,13.696 C10.384,14.128 10.536,14.712 10.536,15.448 C10.536,16.2 10.368,16.824 10.032,17.32 C9.712,17.8 9.296,18.192 8.784,18.496 C8.272,18.784 7.696,18.984 7.056,19.096 C6.416,19.224 5.784,19.288 5.16,19.288 C4.344,19.288 3.52,19.176 2.688,18.952 C1.856,18.712 1.152,18.296 0.576,17.704 L2.76,15.28 C3.096,15.696 3.464,16.016 3.864,16.24 C4.28,16.448 4.76,16.552 5.304,16.552 C5.72,16.552 6.096,16.496 6.432,16.384 C6.768,16.256 6.936,16.032 6.936,15.712 C6.936,15.408 6.784,15.184 6.48,15.04 C6.192,14.88 5.816,14.752 5.352,14.656 C4.904,14.544 4.416,14.432 3.888,14.32 C3.376,14.192 2.888,14.008 2.424,13.768 C1.976,13.528 1.6,13.192 1.296,12.76 C1.008,12.312 0.864,11.72 0.864,10.984 C0.864,10.296 1,9.704 1.272,9.208 C1.56,8.712 1.928,8.304 2.376,7.984 C2.84,7.664 3.368,7.432 3.96,7.288 C4.552,7.128 5.152,7.048 5.76,7.048 C6.528,7.048 7.304,7.16 8.088,7.384 C8.872,7.608 9.536,8.008 10.08,8.584 L7.872,10.768 Z M15.98138,0.856 L15.98138,8.92 L16.02938,8.92 C16.10938,8.696 16.24538,8.472 16.43738,8.248 C16.62938,8.024 16.86138,7.824 17.13338,7.648 C17.40538,7.472 17.72538,7.328 18.09338,7.216 C18.46138,7.104 18.86138,7.048 19.29338,7.048 C20.2054,7.048 20.9414,7.192 21.5014,7.48 C22.0614,7.752 22.4934,8.136 22.7974,8.632 C23.1174,9.128 23.3334,9.712 23.4454,10.384 C23.5574,11.056 23.6134,11.784 23.6134,12.568 L23.6134,19 L20.0134,19 L20.0134,13.288 C20.0134,12.952 19.99738,12.608 19.96538,12.256 C19.94938,11.888 19.87738,11.552 19.74938,11.248 C19.63738,10.944 19.45338,10.696 19.19738,10.504 C18.95738,10.312 18.60538,10.216 18.14138,10.216 C17.67738,10.216 17.30138,10.304 17.01338,10.48 C16.72538,10.64 16.50138,10.864 16.34138,11.152 C16.19738,11.424 16.10138,11.736 16.05338,12.088 C16.00538,12.44 15.98138,12.808 15.98138,13.192 L15.98138,19 L12.38138,19 L12.38138,0.856 L15.98138,0.856 Z M37.2026,16.984 C36.6266,17.72 35.8986,18.288 35.0186,18.688 C34.1386,19.088 33.2266,19.288 32.2826,19.288 C31.3866,19.288 30.5386,19.144 29.7386,18.856 C28.9546,18.568 28.2666,18.16 27.6746,17.632 C27.0986,17.088 26.6426,16.44 26.3066,15.688 C25.9706,14.936 25.8026,14.096 25.8026,13.168 C25.8026,12.24 25.9706,11.4 26.3066,10.648 C26.6426,9.896 27.0986,9.256 27.6746,8.728 C28.2666,8.184 28.9546,7.768 29.7386,7.48 C30.5386,7.192 31.3866,7.048 32.2826,7.048 C33.1146,7.048 33.8666,7.192 34.5386,7.48 C35.2266,7.768 35.8026,8.184 36.2666,8.728 C36.7466,9.256 37.1146,9.896 37.3706,10.648 C37.6266,11.4 37.7546,12.24 37.7546,13.168 L37.7546,14.296 L29.4026,14.296 C29.5466,14.984 29.8586,15.536 30.3386,15.952 C30.8186,16.352 31.4106,16.552 32.1146,16.552 C32.7066,16.552 33.2026,16.424 33.6026,16.168 C34.0186,15.896 34.3786,15.552 34.6826,15.136 L37.2026,16.984 Z M34.1546,11.848 C34.1706,11.24 33.9706,10.72 33.5546,10.288 C33.1386,9.856 32.6026,9.64 31.9466,9.64 C31.5466,9.64 31.1946,9.704 30.8906,9.832 C30.5866,9.96 30.3226,10.128 30.0986,10.336 C29.8906,10.528 29.7226,10.76 29.5946,11.032 C29.4826,11.288 29.4186,11.56 29.4026,11.848 L34.1546,11.848 Z M39.9918,0.856 L43.5918,0.856 L43.5918,19 L39.9918,19 L39.9918,0.856 Z M47.4262,10.216 L45.0502,10.216 L45.0502,7.336 L47.4262,7.336 L47.4262,5.272 C47.4262,4.632 47.4822,4.032 47.5942,3.472 C47.7062,2.896 47.9222,2.392 48.2422,1.96 C48.5622,1.528 49.0182,1.192 49.6102,0.952 C50.2182,0.696 51.0102,0.568 51.9862,0.568 C52.3542,0.568 52.7142,0.584 53.0662,0.616 C53.4182,0.648 53.7622,0.704 54.0982,0.784 L53.9302,3.832 C53.7222,3.752 53.5302,3.696 53.3542,3.664 C53.1782,3.616 52.9782,3.592 52.7542,3.592 C52.1782,3.592 51.7462,3.72 51.4582,3.976 C51.1702,4.216 51.0262,4.72 51.0262,5.488 L51.0262,7.336 L53.6902,7.336 L53.6902,10.216 L51.0262,10.216 L51.0262,19 L47.4262,19 L47.4262,10.216 Z" id="path1_fill"></path>
                </g>
            </g>
            <g id="Union" transform="translate(0.000000, 9.000000)">
                <g id="path2_fill-link" transform="translate(2.000000, 2.126000)" fill-rule="nonzero" fill="#333333">
                    <polygon id="path2_fill" points="0 0 0.426208 0 0.426208 13.10172 103.5738 13.10172 103.5738 0 104 0 104 13.10172 104 13.97514 104 26.2034 103.5738 26.2034 103.5738 13.97514 0.426208 13.97514 0.426208 26.2034 0 26.2034 0 13.97514 0 13.10172"></polygon>
                </g>
                <g id="Clipped">
                    <mask id="mask-2" fill="white">
                        <use xlink:href="#path-1"></use>
                    </mask>
                    <g id="mask0_outline_inv"></g>
                    <g id="path3_stroke_2x-link" mask="url(#mask-2)" fill-rule="nonzero" fill="#333333">
                        <g transform="translate(0.000000, 0.126000)" id="path3_stroke_2x">
                            <path d="M2.426208,2 L3.926208,2 L3.926208,0.5 L2.426208,0.5 L2.426208,2 Z M2,2 L2,0.5 L0.5,0.5 L0.5,2 L2,2 Z M2.426208,15.10172 L0.926208,15.10172 L0.926208,16.60172 L2.426208,16.60172 L2.426208,15.10172 Z M105.5738,15.10172 L105.5738,16.60172 L107.0738,16.60172 L107.0738,15.10172 L105.5738,15.10172 Z M105.5738,2 L105.5738,0.5 L104.0738,0.5 L104.0738,2 L105.5738,2 Z M106,2 L107.5,2 L107.5,0.5 L106,0.5 L106,2 Z M106,28.2034 L106,29.7034 L107.5,29.7034 L107.5,28.2034 L106,28.2034 Z M105.5738,28.2034 L104.0738,28.2034 L104.0738,29.7034 L105.5738,29.7034 L105.5738,28.2034 Z M105.5738,15.97514 L107.0738,15.97514 L107.0738,14.47514 L105.5738,14.47514 L105.5738,15.97514 Z M2.426208,15.97514 L2.426208,14.47514 L0.926208,14.47514 L0.926208,15.97514 L2.426208,15.97514 Z M2.426208,28.2034 L2.426208,29.7034 L3.926208,29.7034 L3.926208,28.2034 L2.426208,28.2034 Z M2,28.2034 L0.5,28.2034 L0.5,29.7034 L2,29.7034 L2,28.2034 Z M2.426208,0.5 L2,0.5 L2,3.5 L2.426208,3.5 L2.426208,0.5 Z M3.926208,15.10172 L3.926208,2 L0.926208,2 L0.926208,15.10172 L3.926208,15.10172 Z M105.5738,13.60172 L2.426208,13.60172 L2.426208,16.60172 L105.5738,16.60172 L105.5738,13.60172 Z M104.0738,2 L104.0738,15.10172 L107.0738,15.10172 L107.0738,2 L104.0738,2 Z M106,0.5 L105.5738,0.5 L105.5738,3.5 L106,3.5 L106,0.5 Z M107.5,15.10172 L107.5,2 L104.5,2 L104.5,15.10172 L107.5,15.10172 Z M107.5,15.97514 L107.5,15.10172 L104.5,15.10172 L104.5,15.97514 L107.5,15.97514 Z M107.5,28.2034 L107.5,15.97514 L104.5,15.97514 L104.5,28.2034 L107.5,28.2034 Z M105.5738,29.7034 L106,29.7034 L106,26.7034 L105.5738,26.7034 L105.5738,29.7034 Z M104.0738,15.97514 L104.0738,28.2034 L107.0738,28.2034 L107.0738,15.97514 L104.0738,15.97514 Z M2.426208,17.47514 L105.5738,17.47514 L105.5738,14.47514 L2.426208,14.47514 L2.426208,17.47514 Z M3.926208,28.2034 L3.926208,15.97514 L0.926208,15.97514 L0.926208,28.2034 L3.926208,28.2034 Z M2,29.7034 L2.426208,29.7034 L2.426208,26.7034 L2,26.7034 L2,29.7034 Z M0.5,15.97514 L0.5,28.2034 L3.5,28.2034 L3.5,15.97514 L0.5,15.97514 Z M0.5,15.10172 L0.5,15.97514 L3.5,15.97514 L3.5,15.10172 L0.5,15.10172 Z M0.5,2 L0.5,15.10172 L3.5,15.10172 L3.5,2 L0.5,2 Z"></path>
                        </g>
                    </g>
                </g>
            </g>
        </g>
    </g>
</svg>